<?xml version="1.0" encoding="utf-8"?>
<!-- Generator: Adobe Illustrator 24.3.0, SVG Export Plug-In . SVG Version: 6.00 Build 0)  -->
<svg version="1.1" id="Layer_1" xmlns="http://www.w3.org/2000/svg" xmlns:xlink="http://www.w3.org/1999/xlink" x="0px" y="0px"
	 viewBox="0 0 105.5 102.4" style="enable-background:new 0 0 105.5 102.4;" xml:space="preserve">
<style type="text/css">
	.st0{fill-rule:evenodd;clip-rule:evenodd;fill:#231E1B;}
</style>
<path class="st0" d="M52.7,0.6C24.1,0.6,0.8,23.8,0.8,52.5c0,22.9,14.9,42.4,35.5,49.2c2.6,0.5,3.5-1.1,3.5-2.5c0-1.2,0-4.5-0.1-8.8
	c-14.4,3.1-17.5-7-17.5-7c-2.4-6-5.8-7.6-5.8-7.6c-4.7-3.2,0.4-3.2,0.4-3.2c5.2,0.4,7.9,5.3,7.9,5.3C29.5,86,37,83.7,40,82.4
	c0.5-3.4,1.8-5.6,3.3-6.9c-11.5-1.3-23.6-5.8-23.6-25.7c0-5.7,2-10.3,5.3-13.9c-0.5-1.3-2.3-6.6,0.5-13.7c0,0,4.4-1.4,14.3,5.3
	c4.1-1.2,8.6-1.7,13-1.7c4.4,0,8.8,0.6,13,1.7c9.9-6.7,14.3-5.3,14.3-5.3c2.8,7.1,1.1,12.4,0.5,13.7c3.3,3.6,5.3,8.3,5.3,13.9
	c0,19.9-12.1,24.3-23.7,25.6c1.9,1.6,3.5,4.8,3.5,9.6c0,6.9-0.1,12.5-0.1,14.2c0,1.4,0.9,3,3.6,2.5c20.6-6.9,35.5-26.3,35.5-49.2
	C104.7,23.8,81.4,0.6,52.7,0.6z"/>
</svg>
